<svg width="30" height="24" viewBox="0 0 30 24" fill="none" xmlns="http://www.w3.org/2000/svg">
<path opacity="0.3" d="M23.125 9.02317C22.875 9.02317 22.625 9.02317 22.375 9.17201C21.875 4.85572 18.75 1.5813 15 1.5813C12.25 1.5813 9.75 3.36735 8.5 6.04642C8.375 6.04642 8.25 6.04642 8.125 6.04642C4.375 6.04642 1.25 9.76735 1.25 14.2325C1.25 18.6976 4.375 22.4185 8.125 22.4185H23.125C26.25 22.4185 28.75 19.4418 28.75 15.7208C28.75 11.9999 26.25 9.02317 23.125 9.02317Z" fill="black"/>
<path d="M15 19.4419L10 13.4884H13.75V7.53491H16.25V13.4884H20L15 19.4419Z" fill="white"/>
<path d="M23.125 23.9069H8.125C3.625 23.9069 0 19.5907 0 14.2325C0 9.02324 3.5 4.70697 7.875 4.55813C9.5 1.73022 12.125 0.0930176 15 0.0930176C18.875 0.0930176 22.25 3.2186 23.375 7.53487C27 7.68371 30 11.2558 30 15.7209C30 20.186 26.875 23.9069 23.125 23.9069ZM8.125 7.53487C5 7.53487 2.5 10.5116 2.5 14.2325C2.5 17.9535 5 20.9302 8.125 20.9302H23.125C25.5 20.9302 27.5 18.5488 27.5 15.7209C27.5 12.893 25.5 10.5116 23.125 10.5116C23 10.5116 22.875 10.5116 22.75 10.5116L21.375 10.6604L21.125 9.17208C20.625 5.74883 18.125 3.06976 15 3.06976C12.75 3.06976 10.75 4.55813 9.625 6.79068L9.25 7.53487H8.125Z" fill="black"/>
</svg>
